<svg width="87" height="48" viewBox="0 0 87 48" fill="none" xmlns="http://www.w3.org/2000/svg">
<path d="M84.8066 31.9017C84.1007 31.9017 83.5856 31.3459 83.5856 30.6462C83.5856 29.9565 84.1007 29.3915 84.7972 29.3915C85.4935 29.3915 85.9994 29.9565 85.9994 30.6559C85.9994 31.3459 85.4935 31.9017 84.8066 31.9017ZM84.7972 29.0751C83.9001 29.0751 83.185 29.7748 83.185 30.6462C83.185 31.5373 83.9001 32.237 84.7972 32.237C85.7034 32.237 86.4 31.5373 86.4 30.6462C86.4 29.7748 85.7034 29.0751 84.7972 29.0751Z" fill="#653024"/>
<path d="M84.7304 30.5793H84.5586V30.1293C84.5968 30.1198 84.6637 30.1101 84.7592 30.1101C84.9876 30.1101 85.0928 30.2057 85.0928 30.3493C85.0928 30.5123 84.9307 30.5793 84.7304 30.5793ZM85.1597 30.6945V30.6754C85.3506 30.6176 85.4842 30.4837 85.4842 30.3112C85.4842 30.1579 85.4173 30.0332 85.3315 29.9659C85.217 29.8993 85.0834 29.8515 84.7877 29.8515C84.5298 29.8515 84.3298 29.8704 84.1865 29.8993V31.4701H84.5489V30.8379H84.721C84.9213 30.8379 85.0167 30.9145 85.0452 31.087C85.0928 31.269 85.1215 31.4128 85.1694 31.4701H85.5603C85.5221 31.4128 85.4936 31.3173 85.4457 31.0776C85.3982 30.8667 85.3124 30.752 85.1597 30.6945Z" fill="#653024"/>
<path d="M42.5928 22.4708C42.5928 22.4708 42.5324 22.5118 42.4292 22.5878C40.5077 24.0107 39.8772 26.6122 40.9213 28.7679L42.4948 32.0162L44.1112 28.6269C45.0727 26.6102 44.5884 24.1861 42.9021 22.726C42.8036 22.6411 42.7007 22.5558 42.5928 22.4708Z" fill="#653024"/>
<path d="M73.5115 14.8181C72.5688 16.8437 73.0765 19.2633 74.7764 20.7073C74.8755 20.7914 74.9792 20.8755 75.0881 20.9596C75.0881 20.9596 75.1482 20.9181 75.2505 20.8409C77.1586 19.4 77.7643 16.7923 76.6997 14.6465L75.0955 11.4134L73.5115 14.8181Z" fill="#653024"/>
<path d="M3.777 9.15916L4.33823 5.44377C4.67212 3.23308 3.50436 1.05643 1.4674 0.153902C1.34861 0.101267 1.22525 0.0497749 1.09733 0C1.09733 0 1.05147 0.0569269 0.974833 0.160196C-0.449609 2.08397 -0.296909 4.75694 1.32809 6.51308L3.777 9.15916Z" fill="#653024"/>
<path d="M0 10.1366C0.20455 12.6915 0.334174 34.2288 0.334174 34.2288H4.63969L4.37617 10.048L0 10.1366Z" fill="#653024"/>
<path d="M24.7408 9.9707C24.7408 9.9707 25.8196 20.8402 24.8456 26.9874C24.8456 26.9874 14.6457 15.4079 13.2244 13.9372C11.567 12.222 10.7844 11.0675 9.13087 10.4553C9.13087 10.4553 5.8142 21.4736 7.53721 34.2288H11.7744C11.7744 34.2288 10.6627 24.3299 11.6288 18.3572C11.6288 18.3572 21.1512 29.3163 22.7383 30.9048C24.4978 32.6661 26.2797 33.7179 27.4788 34.341C27.4788 34.341 30.82 22.5629 28.8255 9.89775L24.7408 9.9707Z" fill="#653024"/>
<path d="M42.5764 9.97799C42.5581 9.96854 42.5348 9.96854 42.508 9.97799C42.508 9.97799 33.9303 12.9267 30.3008 34.2287H34.5747C34.5747 34.2287 37.0843 19.8815 42.5422 15.1331C48.122 20.0371 50.5096 34.2287 50.5096 34.2287H54.7764C51.1469 12.9267 42.5764 9.97799 42.5764 9.97799Z" fill="#653024"/>
<path d="M77.2651 4.87493L74.2561 1.81577C62.6022 13.6173 49.5683 9.31119 48.9974 9.11609L49.1575 13.3904C49.4495 13.492 51.1064 14.1365 55.7808 14.1365C56.1495 14.1365 56.5267 14.1299 56.9127 14.1153C57.2389 19.7476 57.2682 34.2287 57.2682 34.2287L61.5364 34.219L61.3555 13.6096C66.2989 12.663 71.9608 10.2472 77.2651 4.87493Z" fill="#653024"/>
<path d="M85.9768 10.0461H81.7453C82.2564 29.2075 76.0815 30.0482 74.7413 30.0147C74.4904 30.021 74.0619 29.9964 73.5351 29.8262C72.2842 29.5075 71.3138 28.6099 70.5569 27.393C69.184 25.1099 67.9416 21.2712 67.7354 14.1634C66.4311 14.7049 65.0913 15.1546 63.7196 15.5139C64.0478 25.8196 67.3664 30.578 70.3341 32.6402C73.5072 34.846 77.721 34.7156 80.4687 31.9946C86.4622 26.0588 86.0181 11.0911 85.9768 10.0461Z" fill="#653024"/>
<path d="M0.248421 43.5719C0.248421 43.5719 0.269788 43.5399 0.309672 43.4855C1.05466 42.4706 2.41728 42.1376 3.54629 42.6891L5.24764 43.5201L3.47222 44.3737C2.41614 44.8812 1.14667 44.6258 0.382034 43.735C0.337306 43.6832 0.292864 43.6288 0.248421 43.5719Z" fill="#653024"/>
<path d="M81.8381 43.5719C81.8381 43.5719 81.817 43.5399 81.7769 43.4855C81.0319 42.4706 79.6693 42.1376 78.5402 42.6891L76.8389 43.5201L78.6143 44.3737C79.6704 44.8812 80.9399 44.6258 81.7045 43.735C81.7492 43.6832 81.7937 43.6288 81.8381 43.5719Z" fill="#653024"/>
<path d="M8.35606 44.8217H11.1374C10.6816 43.8111 10.2021 42.7996 9.74632 41.8601C9.27853 42.7996 8.81103 43.8111 8.35606 44.8217ZM11.7844 46.2664H7.69655C7.45638 46.8084 7.21708 47.3505 7.0131 47.8795H5.15449C6.5211 44.8704 8.19994 41.4997 9.68678 38.8507H9.79475C11.281 41.4997 12.9599 44.8704 14.3265 47.8795H12.4679C12.2639 47.3377 12.0246 46.8084 11.7844 46.2664Z" fill="#653024"/>
<path d="M25.3086 38.8507V47.8794H23.5822L23.6184 42.7031C22.5389 43.9192 21.1603 45.7729 20.3695 46.9166H20.2735C19.4826 45.7609 18.1032 43.9192 17.0363 42.7031L17.0728 47.8794H15.3338V38.8507C16.1013 38.8507 18.7508 42.1736 20.3211 44.2562C21.8922 42.1736 24.5539 38.8507 25.3086 38.8507Z" fill="#653024"/>
<path d="M29.5302 44.8217H32.3115C31.8557 43.8111 31.3762 42.7996 30.9204 41.8601C30.4526 42.7996 29.9851 43.8111 29.5302 44.8217ZM32.9582 46.2664H28.8707C28.6305 46.8084 28.3912 47.3505 28.1872 47.8795H26.3286C27.6961 44.8704 29.3741 41.4997 30.8603 38.8507H30.9689C32.4551 41.4997 34.1337 44.8704 35.5003 47.8795H33.6425C33.438 47.3377 33.1984 46.8084 32.9582 46.2664Z" fill="#653024"/>
<path d="M42.5146 46.435V47.8797H35.861C35.861 46.4957 38.8341 42.5947 39.9851 40.4163H35.9325V38.9708H42.4425C42.4425 40.3559 39.4575 44.2561 38.3065 46.435H42.5146Z" fill="#653024"/>
<path d="M50.8715 43.4258C50.8715 41.5475 49.7206 40.2954 48.0058 40.2954C46.2797 40.2954 45.1287 41.5475 45.1287 43.4258C45.1287 45.3032 46.2797 46.5553 48.0058 46.5553C49.7206 46.5553 50.8715 45.3032 50.8715 43.4258ZM43.3299 43.4258C43.3299 40.6805 45.2002 38.8508 48.0058 38.8508C50.7875 38.8508 52.6694 40.6805 52.6694 43.4258C52.6694 46.1703 50.7875 47.9999 48.0058 47.9999C45.2002 47.9999 43.3299 46.1703 43.3299 43.4258Z" fill="#653024"/>
<path d="M62.6568 48C61.7697 48 58.149 44.1842 56.0272 42.1617L56.0508 47.8796H54.3124V38.8509C55.2002 38.8509 58.8083 42.6672 60.9301 44.6897L60.9065 38.971H62.6568V48Z" fill="#653024"/>
<path d="M66.5785 47.8795H64.8396V38.9706H66.5785V47.8795Z" fill="#653024"/>
<path d="M70.8107 44.8217H73.592C73.1362 43.8111 72.6567 42.7996 72.2009 41.8601C71.7331 42.7996 71.2656 43.8111 70.8107 44.8217ZM74.239 46.2664H70.1511C69.911 46.8084 69.6717 47.3505 69.4677 47.8795H67.6091C68.9757 44.8704 70.6545 41.4997 72.1414 38.8507H72.2493C73.7356 41.4997 75.4145 44.8704 76.7811 47.8795H74.9224C74.7185 47.3377 74.4792 46.8084 74.239 46.2664Z" fill="#653024"/>
<path d="M50.9878 38.339L50.3881 37.0359C50.0311 36.2604 49.2027 35.8136 48.364 35.9561C48.315 35.9643 48.2651 35.9741 48.2141 35.9852C48.2141 35.9852 48.2113 36.013 48.2084 36.0622C48.1571 36.9764 48.7662 37.7966 49.6525 38.0128L50.9878 38.339Z" fill="#653024"/>
<path d="M45.3248 38.1909L46.7219 37.886C47.5529 37.7043 48.1677 36.9894 48.211 36.1364C48.2136 36.0869 48.215 36.0354 48.2153 35.9828C48.2153 35.9828 48.1888 35.9742 48.1418 35.9608C47.264 35.7125 46.3345 36.1313 45.9319 36.9528L45.3248 38.1909Z" fill="#653024"/>
</svg>
